<svg xmlns="http://www.w3.org/2000/svg" viewBox="0 0 24 24" role="img" aria-label="Nyheter">
  <style>
    .bg    { fill: #eef5ff; }
    .glyph { fill: #0a2343; }
    @media (prefers-color-scheme: dark) {
      .bg    { fill: #061629; }
      .glyph { fill: #eef5ff; }
    }
  </style>
  <rect class="bg" width="24" height="24"/>
  <path class="glyph" d="M6.03 18.01 9.11 6.72 7.82 6.92Q8.29 7.99 8.83 9.26Q9.36 10.52 9.91 11.84Q10.45 13.16 10.95 14.39Q11.45 15.62 11.85 16.62Q12.25 17.63 12.5 18.25Q12.72 18.73 12.84 19.18Q12.95 19.62 12.92 20.19Q12.91 20.77 13.16 21.07Q13.4 21.38 13.87 21.38H16Q16.54 21.38 16.74 20.93Q16.95 20.48 16.72 19.9L16.29 18.78Q16.12 18.32 16.11 17.95Q16.1 17.57 16.21 17.12L18.42 8.82Q18.61 8.06 18.88 7.55Q19.14 7.03 19.54 6.68Q19.94 6.32 20.52 6.05Q21.27 5.68 21.63 5.19Q21.99 4.7 22 4.07Q22.01 3.36 21.6 2.99Q21.18 2.62 20.6 2.62Q19.53 2.62 18.69 3.58Q17.85 4.54 17.4 6.35L14.31 18.3L15.66 17.78Q15.35 17.13 14.91 16.09Q14.46 15.05 13.94 13.78Q13.42 12.52 12.86 11.17Q12.31 9.83 11.79 8.55Q11.27 7.28 10.83 6.23Q10.4 5.19 10.12 4.53Q9.83 3.84 9.48 3.47Q9.13 3.1 8.46 3.1H6.92Q6.47 3.1 6.25 3.35Q6.02 3.61 6.03 3.97Q6.05 4.33 6.3 4.66L6.95 5.94Q7.23 6.32 7.27 6.86Q7.31 7.4 7.11 8.11L4.42 17.87Q4.23 18.54 3.99 19Q3.74 19.47 3.35 19.58L2.67 19.77Q2.01 20.03 2 20.64Q1.99 20.96 2.19 21.17Q2.39 21.38 2.82 21.38H6.87Q7.24 21.38 7.46 21.19Q7.69 20.99 7.69 20.6Q7.69 20.34 7.55 20.14Q7.4 19.94 7.15 19.85L6.5 19.71Q5.99 19.5 5.93 19.05Q5.87 18.59 6.03 18.01Z"/>
</svg>
