<svg xmlns="http://www.w3.org/2000/svg" fill="none" viewBox="0 0 24 24" id="apple-podcasts" height="24" width="24">
  <path stroke="currentColor" stroke-linecap="round" stroke-linejoin="round" d="M10 15.5c0 -1.2 1.167 -1.5 2 -1.5s2 0.3 2 1.5c0 2.5 0 7 -2 7s-2 -4.5 -2 -7Z" stroke-width="1.5"></path>
  <path stroke="currentColor" stroke-linejoin="round" d="M15.5 19.834a9.503 9.503 0 0 0 6 -8.834 9.5 9.5 0 0 0 -19 0c0 4.01 2.485 7.44 6 8.834" stroke-width="1.5"></path>
  <path stroke="currentColor" stroke-linejoin="round" d="M16 15.472a6 6 0 1 0 -8 0" stroke-width="1.5"></path>
  <path stroke="currentColor" stroke-linejoin="round" d="M10 10.5a2 2 0 1 0 4 0 2 2 0 1 0 -4 0" stroke-width="1.5"></path>
</svg>
